<?xml version="1.0" encoding="UTF-8"?>
<svg width="512" height="512" viewBox="0 0 512 512" fill="none" xmlns="http://www.w3.org/2000/svg">
  <rect width="512" height="512" fill="#000000"/>
  <path d="M256 50C142.5 50 50 142.5 50 256C50 369.5 142.5 462 256 462C369.5 462 462 369.5 462 256C462 142.5 369.5 50 256 50ZM256 422C164.5 422 90 347.5 90 256C90 164.5 164.5 90 256 90C347.5 90 422 164.5 422 256C422 347.5 347.5 422 256 422Z" fill="#FF0000"/>
  <path d="M256 130C196.5 130 150 176.5 150 236C150 295.5 196.5 342 256 342C315.5 342 362 295.5 362 236C362 176.5 315.5 130 256 130ZM256 302C218.5 302 190 273.5 190 236C190 198.5 218.5 170 256 170C293.5 170 322 198.5 322 236C322 273.5 293.5 302 256 302Z" fill="#FF0000"/>
  <circle cx="256" cy="236" r="50" fill="#FF0000"/>
</svg>
